<svg width="24" height="21" viewBox="0 0 24 21" fill="none" xmlns="http://www.w3.org/2000/svg">
<path d="M10.089 9.015C11.2714 8.33564 12.5469 8.47845 13.6359 9.22828C14.2729 9.65461 14.8152 10.1791 15.2365 10.7746C16.0914 12.0568 17.1499 13.2282 18.38 14.2538C19.1944 14.9301 19.863 15.7016 19.9552 16.7117C20.0935 18.2024 19.6346 20.0252 17.8966 20.7251C16.8573 21.1448 15.8134 20.9775 14.7706 20.7671C14.3615 20.6881 13.9571 20.5918 13.5587 20.479L13.1632 20.3611C12.2058 20.0498 11.2717 20.1228 10.3087 20.3518C9.2355 20.6063 8.15085 20.9182 7.05287 20.9896C5.23554 21.107 3.96494 20.22 3.55287 18.7235L3.48256 18.4169C3.44884 18.233 3.42205 18.0476 3.3976 17.8622L3.32631 17.3043C3.30951 16.1464 3.90096 15.2206 4.80092 14.4424C6.12281 13.2971 7.20822 12.0116 8.19936 10.6382C8.65944 10 9.36121 9.43395 10.089 9.015ZM13.0871 10.107C12.2664 9.54199 11.3874 9.4669 10.5695 9.93683C9.92068 10.3104 9.34579 10.7885 8.99721 11.2719L8.99623 11.2729C7.97417 12.6891 6.83649 14.0405 5.43764 15.2525H5.43666C4.68244 15.9047 4.33341 16.5403 4.32631 17.2356C4.37492 17.6077 4.40641 17.9027 4.46303 18.2128C4.57525 18.8095 4.85043 19.2393 5.23256 19.5202C5.62256 19.8068 6.20054 19.9927 6.99135 19.9417L7.36244 19.9078C8.2286 19.8072 9.09324 19.5634 10.088 19.3275L10.4865 19.2413C11.4237 19.0585 12.4181 19.0187 13.4591 19.3572H13.4581C13.823 19.4717 14.1942 19.5708 14.5705 19.6546L14.9513 19.7345L14.9591 19.7356C16.0106 19.9477 16.7936 20.0456 17.5382 19.7448H17.5392C18.6734 19.2881 19.0765 18.0777 18.9591 16.8132V16.8111C18.9081 16.2538 18.5318 15.719 17.7589 15.0772L17.758 15.0761C16.4638 13.9973 15.3441 12.7603 14.4337 11.4001L14.2999 11.2206C13.976 10.8063 13.5717 10.4313 13.0978 10.1142L13.0871 10.107ZM0.592912 6.63094C1.41865 5.62662 2.85668 5.52381 3.95131 6.39202C4.98172 7.20833 5.50571 8.26263 5.52944 9.70919C5.54159 10.3143 5.33061 10.9073 4.9269 11.4001C4.30026 12.1832 3.36048 12.4123 2.36147 12.0492C0.276978 11.2914 -0.723226 8.2314 0.592912 6.63094ZM19.8078 6.59505C20.4826 5.95902 21.3184 5.61614 22.3205 5.8988C23.3757 6.19931 23.7417 6.99064 23.9464 7.84809C23.9849 8.08084 24.0026 8.31638 24.0001 8.55152L23.9503 8.96578C23.8019 9.91273 23.421 10.7213 22.6769 11.4021C22.0178 12.005 21.224 12.3651 20.2658 12.1578C19.2692 11.9425 18.773 11.2364 18.5783 10.428C18.2284 8.98413 18.6535 7.68652 19.8078 6.59505ZM3.34877 7.22977C2.61797 6.6501 1.78659 6.78562 1.34975 7.31693C0.993357 7.75028 0.877889 8.48929 1.1476 9.31544C1.41417 10.1317 1.99166 10.8031 2.68862 11.0566C3.35111 11.2974 3.83683 11.1298 4.16127 10.7243L4.16908 10.7151C4.42479 10.4029 4.53696 10.0578 4.53041 9.73175L4.52944 9.72765C4.511 8.59903 4.12992 7.84966 3.34877 7.2308V7.22977ZM22.0587 6.9119C21.4578 6.74321 20.9605 6.91956 20.4757 7.37641C19.6169 8.18893 19.3358 9.03974 19.507 9.9799L19.547 10.1686V10.1706C19.6536 10.6131 19.8618 10.9253 20.2765 11.075L20.4669 11.1294L20.6759 11.1612C21.156 11.202 21.584 11.0099 22.0206 10.6105C22.6327 10.0503 22.915 9.38686 22.9982 8.49922C22.9977 8.35233 22.9875 8.20556 22.965 8.05932C22.8788 7.71183 22.7811 7.4718 22.6574 7.30155C22.5461 7.14862 22.3806 7.00459 22.0587 6.91293V6.9119ZM14.5353 0.730785C16.1879 -0.363577 18.0234 0.116287 18.6681 1.83514C18.829 2.26087 18.8721 2.72121 18.9249 2.96206C18.8788 4.72398 18.3123 6.06021 16.8488 6.99701L16.5597 7.16415C15.2078 7.86851 13.8229 7.51384 13.0714 6.30384L12.9201 6.03211C12.0819 4.33373 12.8365 1.85945 14.5353 0.730785ZM5.68276 1.06609C6.72677 -0.249541 8.38665 -0.358497 9.67592 0.800513C11.2055 2.17099 11.4362 4.84028 10.1574 6.36434L10.0441 6.49251C8.89665 7.7292 7.16907 7.72402 6.01381 6.47713L5.89955 6.34896C5.21362 5.52578 4.85702 4.5292 4.88393 3.5127C4.90082 2.68681 5.07372 1.90545 5.57729 1.20452L5.68276 1.06609ZM16.7345 1.24656C16.2936 1.12952 15.7004 1.20032 15.0695 1.61776C14.4384 2.03714 13.9609 2.72634 13.7287 3.48809C13.4952 4.25396 13.5367 4.99827 13.8078 5.54812L13.9064 5.72756C14.1497 6.12136 14.4749 6.3436 14.8214 6.42996C15.1748 6.51798 15.6223 6.48102 16.1154 6.22386L16.3292 6.09978C16.9208 5.7209 17.2929 5.28933 17.5304 4.80675C17.7619 4.33641 17.892 3.7606 17.921 3.03691C17.9141 2.99769 17.9061 2.96046 17.9005 2.92719C17.8859 2.83996 17.8728 2.75908 17.8566 2.67392C17.8241 2.5027 17.7868 2.35092 17.7384 2.22274L17.7374 2.21967C17.53 1.66683 17.1599 1.35949 16.7345 1.24656ZM7.64955 1.05276C7.2351 1.08031 6.80879 1.28732 6.45131 1.73773L6.45033 1.73875C6.05285 2.2391 5.89869 2.8132 5.88393 3.53526V3.54243C5.8647 4.27255 6.11818 5.01479 6.65053 5.65476L6.80385 5.82087C7.59264 6.59902 8.67613 6.54023 9.40639 5.67014L9.48647 5.56863C10.2829 4.49105 10.1246 2.58294 9.02651 1.5993L9.02553 1.59827C8.5562 1.17636 8.06838 1.02505 7.64955 1.05276Z" fill="white"/>
</svg>
